<svg xmlns="http://www.w3.org/2000/svg" viewBox="0 0 100 100">
  <defs>
    <linearGradient id="beerGrad" x1="0%" y1="0%" x2="100%" y2="100%">
      <stop offset="0%" stop-color="#F59E0B" />
      <stop offset="100%" stop-color="#D97706" />
    </linearGradient>
    <linearGradient id="bgGrad" x1="0%" y1="0%" x2="100%" y2="100%">
      <stop offset="0%" stop-color="#2563EB" />
      <stop offset="100%" stop-color="#4F46E5" />
    </linearGradient>
  </defs>
  
  <rect width="100" height="100" rx="24" fill="url(#bgGrad)" />
  
  <path d="M30 35 L35 80 C35.5 85 38 88 45 88 L55 88 C62 88 64.5 85 65 80 L70 35 Z" fill="url(#beerGrad)" stroke="#FFFFFF" stroke-width="4" stroke-linejoin="round" />
  
  <path d="M70 45 C80 45 82 50 82 60 C82 70 80 75 70 75" fill="none" stroke="#FFFFFF" stroke-width="5" stroke-linecap="round" />
  
  <path d="M25 35 C25 25 35 25 40 30 C45 20 55 20 60 30 C65 25 75 25 75 35 C75 42 25 42 25 35 Z" fill="#FFFFFF" />
  
  <path d="M38 70 L48 55 L55 60 L62 45" fill="none" stroke="#FFFFFF" stroke-width="4" stroke-linecap="round" stroke-linejoin="round" />
  <circle cx="62" cy="45" r="3" fill="#FFFFFF" />
</svg>
